{"title":"TeensLikeItBig - Jenna Ashley - Slip In That Big Tip -09 AUG 201","uid":10728659,"size":531546480,"categoryP":"porn","categoryS":"movies","magnet":"?xt=urn:btih:9819e3b604cef4434c6c88f41e1ef8542fa47a2c&amp;dn=TeensLikeItBig+-+Jenna+Ashley+-+Slip+In+That+Big+Tip+-09+AUG+201&amp;tr=udp%3A%2F%2Ftracker.openbittorrent.com%3A80&amp;tr=udp%3A%2F%2Fopen.demonii.com%3A1337&amp;tr=udp%3A%2F%2Ftracker.coppersurfer.tk%3A6969&amp;tr=udp%3A%2F%2Fexodus.desync.com%3A6969","seeders":1,"leechers":0,"uploader":"iH2OSO4","files":-1,"time":1407600318,"description":"Jenna Ashley is a slutty pizza delivery girl, and since she's always eating the pizza and taking masturbation breaks halfway through deliveries, she's always getting calls from upset customers. But being the cock-crazy whore that she is, she knows there's one surefire way to smooth things over and make sure she gets great tips from even the angriest of customers: blowjobs! So when Johnny Sins says he's not tipping her for bringing him a late pizza, she brings him a slice and gets to work sucking! She sucks his fat cock and then fucks it with her tight teen pussy, finally getting the best tip of all for all her hard work: a nice big facial cumshot!\n\nGeneral\nJenna Ashley - Slip In That Big Tip -09 AUG 2014.mp4\n\nSOURCE :  &lt;a href=&quot; http://nuscotower.com/i/rtjuwtrt25.html&quot; rel=&quot;nofollow&quot; target=&quot;_NEW&quot;&gt; http://nuscotower.com/i/rtjuwtrt25.html&lt;/a&gt;\n\nFormat                           : MPEG-4\nFormat profile                   : Base Media\nCodec ID                         : isom\nFile size                        : 507 MiB\nDuration                         : 33mn 23s\nOverall bit rate                 : 2 122 Kbps\nEncoded date                     : UTC 2014-08-09 13:54:22\nTagged date                      : UTC 2014-08-09 13:54:22\n\nVideo\nID                               : 1\nFormat                           : MPEG-4 Visual\nFormat profile                   : Simple@L1\nFormat settings, BVOP            : No\nFormat settings, QPel            : No\nFormat settings, GMC             : No warppoints\nFormat settings, Matrix          : Default (H.263)\nCodec ID                         : 20\nDuration                         : 33mn 23s\nBit rate mode                    : Variable\nBit rate                         : 1 994 Kbps\nMaximum bit rate                 : 4 127 Kbps\nWidth                            : 856 pixels\nHeight                           : 480 pixels\nDisplay aspect ratio             : 16:9\nFrame rate mode                  : Constant\nFrame rate                       : 29.970 fps\nColor space                      : YUV\nChroma subsampling               : 4:2:0\nBit depth                        : 8 bits\nScan type                        : Progressive\nCompression mode                 : Lossy\nBits/(Pixel*Frame)               : 0.162\nStream size                      : 476 MiB (94%)\nWriting library                  : Lavc53.8.0\nEncoded date                     : UTC 2014-08-09 13:54:22\nTagged date                      : UTC 2014-08-09 13:54:41\n\nAudio\nID                               : 2\nFormat                           : AAC\nFormat/Info                      : Advanced Audio Codec\nFormat profile                   : LC\nCodec ID                         : 40\nDuration                         : 33mn 23s\nBit rate mode                    : Variable\nBit rate                         : 126 Kbps\nMaximum bit rate                 : 203 Kbps\nChannel(s)                       : 2 channels\nChannel positions                : Front: L R\nSampling rate                    : 44.1 KHz\nCompression mode                 : Lossy\nStream size                      : 30.0 MiB (6%)\nEncoded date                     : UTC 2014-08-09 13:54:35\nTagged date                      : UTC 2014-08-09 13:54:41\n","torrent":{"xt":"urn:btih:9819e3b604cef4434c6c88f41e1ef8542fa47a2c","amp;dn":"TeensLikeItBig+-+Jenna+Ashley+-+Slip+In+That+Big+Tip+-09+AUG+201","amp;tr":["udp%3A%2F%2Ftracker.openbittorrent.com%3A80","udp%3A%2F%2Fopen.demonii.com%3A1337","udp%3A%2F%2Ftracker.coppersurfer.tk%3A6969","udp%3A%2F%2Fexodus.desync.com%3A6969"],"infoHash":"9819e3b604cef4434c6c88f41e1ef8542fa47a2c","infoHashBuffer":{"type":"Buffer","data":[152,25,227,182,4,206,244,67,76,108,136,244,30,30,248,84,47,164,122,44]},"announce":[],"urlList":[]}}